<svg width="26" height="23" viewBox="0 0 26 23" fill="none" xmlns="http://www.w3.org/2000/svg">
<path d="M7.01367 20.277C8.77566 21.1344 10.82 21.6249 13.0002 21.6249C19.6276 21.6249 25 17.0919 25 11.5C25 5.90812 19.6274 1.375 13 1.375C6.37258 1.375 1 5.90812 1 11.5C1 13.3395 1.58139 15.0644 2.59759 16.5511L2.59844 16.5524C2.69827 16.6984 2.74831 16.7716 2.77088 16.8405C2.79194 16.9048 2.7989 16.9622 2.79351 17.0287C2.78778 17.0994 2.75886 17.1726 2.70172 17.3172L2.69958 17.3226L1.67448 19.9174L1.67368 19.9194C1.45708 20.4677 1.34872 20.742 1.42586 20.9245C1.49308 21.0835 1.6416 21.2087 1.83008 21.2654C2.04667 21.3306 2.3727 21.239 3.02409 21.0558L6.09938 20.1909L6.10147 20.1903C6.27573 20.1413 6.36282 20.1168 6.44723 20.1119C6.52611 20.1074 6.59437 20.1131 6.67057 20.1309C6.75245 20.15 6.8396 20.1923 7.01367 20.277Z" stroke="white" stroke-width="2" stroke-linecap="round" stroke-linejoin="round"/>
</svg>
